<svg width="49" height="46" viewBox="0 0 49 46" fill="none" xmlns="http://www.w3.org/2000/svg">
<path fill-rule="evenodd" clip-rule="evenodd" d="M0.515625 0.5H0.015625V1V45V45.5H0.515625H47.5156H48.0156V45V1V0.5H47.5156H0.515625ZM1.01562 44.5V1.5H47.0156V44.5H1.01562ZM42.8538 7.42622C42.8538 6.43211 42.0032 5.62622 40.9538 5.62622H23.8538C22.8044 5.62622 21.9538 6.43211 21.9538 7.42622C21.9538 8.42033 22.8044 9.22622 23.8538 9.22622H36.3668L5.53418 38.436L8.22118 40.9816L39.0538 11.7718V23.6262C39.0538 24.6203 39.9045 25.4262 40.9538 25.4262C42.0032 25.4262 42.8538 24.6203 42.8538 23.6262V7.42622Z" fill="#BEA683"/>
</svg>
