<svg width="48" height="47" viewBox="0 0 48 47" fill="none" xmlns="http://www.w3.org/2000/svg">
<path fill-rule="evenodd" clip-rule="evenodd" d="M27.6635 23.5542L46.9178 3.92033C47.7462 3.01666 47.7093 1.61901 46.8343 0.760381C45.9593 -0.098252 44.5613 -0.108831 43.6734 0.736464L24.4493 20.34L4.4369 0.706141C3.86397 0.104326 3.00842 -0.1371 2.20541 0.0764369C1.4024 0.289973 0.779771 0.924475 0.581427 1.73139C0.383083 2.5383 0.640602 3.38916 1.25311 3.95065L21.2352 23.5542L1.25311 43.1577C0.40783 44.0456 0.418408 45.4437 1.27702 46.3187C2.13564 47.1936 3.53325 47.2306 4.4369 46.4022L24.4493 26.7684L43.6734 46.3719C44.5613 47.2172 45.9593 47.2066 46.8343 46.348C47.7093 45.4893 47.7462 44.0917 46.9178 43.188L27.6635 23.5542Z" fill="#BEA683"/>
</svg>
