<svg width="28" height="27" viewBox="0 0 28 27" fill="none" xmlns="http://www.w3.org/2000/svg">
<path fill-rule="evenodd" clip-rule="evenodd" d="M16.1732 13.5311L27.6439 2.2521C28.1374 1.73297 28.1154 0.930072 27.5941 0.436815C27.0728 -0.0564426 26.24 -0.0625198 25.711 0.423075L14.2584 11.6847L2.33608 0.405656C1.99476 0.059932 1.48507 -0.0787594 1.00668 0.0439105C0.528291 0.166581 0.157364 0.531081 0.0392013 0.994628C-0.0789612 1.45817 0.0744541 1.94696 0.43935 2.26952L12.3436 13.5311L0.43935 24.7927C-0.0642185 25.3028 -0.0579165 26.1059 0.453598 26.6086C0.965113 27.1112 1.79774 27.1325 2.33608 26.6566L14.2584 15.3776L25.711 26.6392C26.24 27.1248 27.0728 27.1187 27.5941 26.6254C28.1154 26.1322 28.1374 25.3293 27.6439 24.8101L16.1732 13.5311Z" fill="#BEA683"/>
</svg>
