<svg width="183" height="44" viewBox="0 0 183 44" fill="none" xmlns="http://www.w3.org/2000/svg">
<rect x="0.5" y="0.5" width="182" height="43" rx="2.5" stroke="#BEA683"/>
<path opacity="0.8" d="M22.096 23.752H20.624C20.672 24.376 20.816 24.904 21.072 25.352C21.312 25.8 21.632 26.168 22.048 26.456C22.448 26.744 22.928 26.968 23.472 27.096C24.016 27.224 24.64 27.288 25.312 27.288C26.016 27.288 26.624 27.208 27.152 27.032C27.664 26.872 28.096 26.632 28.448 26.328C28.8 26.04 29.056 25.688 29.232 25.288C29.408 24.888 29.504 24.456 29.504 23.992C29.504 23 29.216 22.232 28.672 21.72C28.112 21.208 27.248 20.824 26.064 20.6L24.464 20.312C24.064 20.248 23.728 20.152 23.472 20.056C23.2 19.96 22.976 19.832 22.816 19.672C22.656 19.512 22.528 19.336 22.464 19.128C22.4 18.92 22.368 18.68 22.368 18.392C22.368 18.136 22.4 17.896 22.496 17.672C22.592 17.448 22.736 17.24 22.96 17.08C23.168 16.92 23.456 16.776 23.808 16.68C24.16 16.584 24.592 16.536 25.12 16.536C25.568 16.536 25.968 16.584 26.288 16.664C26.608 16.76 26.864 16.888 27.088 17.048C27.312 17.208 27.488 17.416 27.616 17.672C27.744 17.928 27.856 18.2 27.952 18.52L29.328 18.248C29.232 17.88 29.104 17.512 28.944 17.16C28.784 16.808 28.544 16.488 28.224 16.2C27.904 15.928 27.488 15.704 26.976 15.544C26.464 15.384 25.84 15.288 25.088 15.288C24.48 15.288 23.936 15.352 23.424 15.48C22.912 15.608 22.464 15.816 22.096 16.072C21.712 16.344 21.424 16.68 21.2 17.064C20.976 17.464 20.88 17.928 20.88 18.44C20.88 18.984 20.944 19.432 21.104 19.8C21.264 20.184 21.488 20.488 21.792 20.744C22.096 21 22.464 21.192 22.912 21.352C23.344 21.512 23.84 21.64 24.416 21.736L25.856 21.992C26.272 22.072 26.624 22.168 26.896 22.296C27.168 22.424 27.376 22.584 27.536 22.744C27.696 22.92 27.792 23.112 27.856 23.32C27.904 23.528 27.936 23.736 27.936 23.96C27.936 24.248 27.888 24.504 27.808 24.76C27.712 25.016 27.568 25.224 27.376 25.416C27.168 25.608 26.896 25.752 26.56 25.864C26.224 25.976 25.808 26.024 25.312 26.024C24.304 26.024 23.552 25.848 23.04 25.496C22.528 25.144 22.224 24.552 22.096 23.752ZM32.5332 19.832V24.312C32.5332 24.728 32.5492 25.112 32.6132 25.464C32.6772 25.816 32.7892 26.12 32.9652 26.376C33.1252 26.632 33.3652 26.84 33.6532 26.968C33.9412 27.112 34.3092 27.176 34.7892 27.176C35.1252 27.176 35.4132 27.16 35.6693 27.112C35.9253 27.064 36.1493 27 36.3733 26.92L36.1333 25.848C35.9732 25.912 35.8133 25.944 35.6372 25.976C35.4612 26.008 35.2533 26.024 35.0293 26.024C34.6453 26.024 34.3733 25.912 34.1972 25.656C34.0052 25.416 33.9253 25.096 33.9253 24.68V19.832H36.1172V18.728H33.9253V16.472H32.5332V18.728H31.2532V19.832H32.5332ZM43.4521 25.864V27H44.7961V21.624C44.7961 21.144 44.7321 20.696 44.6201 20.296C44.5081 19.912 44.3321 19.576 44.0761 19.304C43.8201 19.048 43.4841 18.84 43.0681 18.696C42.6521 18.552 42.1561 18.472 41.5641 18.472C40.5881 18.472 39.8201 18.648 39.2601 19C38.6841 19.352 38.3321 19.896 38.1881 20.648L39.4521 20.792C39.5481 20.408 39.7401 20.12 40.0601 19.896C40.3641 19.672 40.8441 19.56 41.5161 19.56C42.1881 19.56 42.6681 19.72 42.9721 20.024C43.2601 20.344 43.4201 20.84 43.4201 21.544V21.864L41.9961 21.912C41.4521 21.944 40.9401 21.992 40.4441 22.072C39.9321 22.168 39.4841 22.312 39.0841 22.504C38.6841 22.712 38.3641 22.984 38.1241 23.336C37.8841 23.688 37.7721 24.152 37.7721 24.712C37.7721 25.128 37.8361 25.496 37.9801 25.8C38.1081 26.12 38.3001 26.376 38.5561 26.584C38.8121 26.792 39.1001 26.952 39.4521 27.048C39.8041 27.144 40.1881 27.192 40.6041 27.192C41.2761 27.192 41.8521 27.064 42.3161 26.808C42.7641 26.552 43.1481 26.232 43.4521 25.864ZM43.4201 22.856V23.784C43.4201 24.488 43.1801 25.048 42.7321 25.448C42.2681 25.864 41.6281 26.056 40.8121 26.056C40.2361 26.056 39.8201 25.944 39.5641 25.688C39.3081 25.432 39.1961 25.096 39.1961 24.68C39.1961 24.408 39.2281 24.168 39.3241 23.944C39.4201 23.736 39.5641 23.56 39.7881 23.416C40.0121 23.272 40.3001 23.16 40.6841 23.064C41.0521 22.984 41.5161 22.936 42.0921 22.904L43.4201 22.856ZM47.6095 18.728V27H49.0015V22.088C49.0015 21.736 49.0655 21.432 49.1935 21.16C49.3215 20.904 49.5135 20.664 49.7535 20.456C49.9775 20.248 50.2335 20.104 50.5055 20.008C50.7615 19.912 51.0335 19.864 51.2895 19.864C51.4175 19.864 51.5295 19.88 51.6415 19.896C51.7375 19.912 51.8495 19.928 51.9615 19.944L52.1375 18.648C51.9295 18.616 51.6895 18.584 51.4015 18.584C50.9215 18.584 50.4895 18.712 50.0735 18.952C49.6575 19.208 49.2895 19.56 48.9855 20.008V18.728H47.6095ZM55.0082 19.832V24.312C55.0082 24.728 55.0242 25.112 55.0882 25.464C55.1522 25.816 55.2642 26.12 55.4402 26.376C55.6002 26.632 55.8402 26.84 56.1282 26.968C56.4162 27.112 56.7842 27.176 57.2642 27.176C57.6002 27.176 57.8882 27.16 58.1442 27.112C58.4002 27.064 58.6242 27 58.8482 26.92L58.6082 25.848C58.4482 25.912 58.2882 25.944 58.1122 25.976C57.9362 26.008 57.7282 26.024 57.5042 26.024C57.1202 26.024 56.8482 25.912 56.6722 25.656C56.4802 25.416 56.4002 25.096 56.4002 24.68V19.832H58.5922V18.728H56.4002V16.472H55.0082V18.728H53.7282V19.832H55.0082ZM64.8025 28.76L64.5305 29.88C64.7705 29.976 64.9945 30.024 65.2025 30.056C65.3945 30.088 65.6345 30.104 65.8905 30.104C66.2425 30.104 66.5465 30.056 66.8025 29.96C67.0585 29.864 67.2665 29.704 67.4585 29.496C67.6345 29.304 67.7945 29.064 67.9545 28.776C68.0985 28.488 68.2425 28.168 68.4025 27.784L72.0185 18.728H70.4825L68.0985 25.224L65.4905 18.728H63.8745L67.3785 26.792L67.0425 27.672C66.8505 28.152 66.6745 28.488 66.4825 28.664C66.2905 28.84 66.0345 28.92 65.6985 28.92C65.3945 28.92 65.0905 28.872 64.8025 28.76ZM77.4652 27.256C78.0732 27.256 78.6332 27.16 79.1452 26.952C79.6412 26.744 80.0572 26.44 80.4092 26.056C80.7612 25.672 81.0172 25.208 81.2092 24.664C81.4012 24.12 81.4972 23.512 81.4972 22.824C81.4972 22.152 81.4012 21.56 81.2252 21.016C81.0332 20.488 80.7772 20.04 80.4252 19.656C80.0732 19.272 79.6572 18.984 79.1772 18.776C78.6812 18.584 78.1212 18.472 77.5132 18.472C76.9052 18.472 76.3452 18.584 75.8492 18.792C75.3532 19 74.9372 19.288 74.5852 19.672C74.2332 20.056 73.9612 20.52 73.7692 21.064C73.5772 21.608 73.4812 22.216 73.4812 22.888C73.4812 23.56 73.5612 24.168 73.7532 24.712C73.9292 25.256 74.1852 25.72 74.5372 26.088C74.8732 26.472 75.2892 26.76 75.7852 26.952C76.2652 27.16 76.8252 27.256 77.4652 27.256ZM77.4812 26.104C77.0332 26.104 76.6492 26.024 76.3292 25.864C76.0092 25.704 75.7372 25.48 75.5452 25.192C75.3372 24.904 75.1932 24.568 75.0972 24.168C75.0012 23.784 74.9532 23.336 74.9532 22.856C74.9532 22.376 75.0012 21.944 75.0972 21.544C75.1932 21.16 75.3372 20.824 75.5452 20.536C75.7532 20.248 76.0092 20.024 76.3292 19.864C76.6492 19.704 77.0332 19.624 77.4812 19.624C77.9292 19.624 78.3132 19.704 78.6332 19.864C78.9532 20.024 79.2092 20.248 79.4172 20.536C79.6252 20.824 79.7852 21.16 79.8812 21.544C79.9772 21.944 80.0252 22.376 80.0252 22.84C80.0252 23.32 79.9772 23.768 79.8812 24.168C79.7852 24.568 79.6252 24.904 79.4172 25.192C79.2092 25.48 78.9532 25.704 78.6332 25.864C78.3132 26.024 77.9292 26.104 77.4812 26.104ZM84.0146 18.728V24.216C84.0146 25.24 84.2226 25.992 84.6386 26.504C85.0546 27.016 85.7426 27.256 86.6866 27.256C87.2306 27.256 87.7266 27.144 88.2066 26.888C88.6706 26.648 89.1026 26.264 89.5186 25.72V27H90.8946V18.728H89.5026V23.624C89.5026 24.04 89.4226 24.392 89.2946 24.648C89.1506 24.904 88.9426 25.16 88.6866 25.384C88.1746 25.832 87.6146 26.056 87.0066 26.056C86.4306 26.056 86.0306 25.896 85.7746 25.576C85.5186 25.256 85.4066 24.712 85.4066 23.944V18.728H84.0146ZM93.7314 18.728V27H95.1234V22.088C95.1234 21.736 95.1874 21.432 95.3154 21.16C95.4434 20.904 95.6354 20.664 95.8754 20.456C96.0994 20.248 96.3554 20.104 96.6274 20.008C96.8834 19.912 97.1554 19.864 97.4114 19.864C97.5394 19.864 97.6514 19.88 97.7634 19.896C97.8594 19.912 97.9714 19.928 98.0834 19.944L98.2594 18.648C98.0514 18.616 97.8114 18.584 97.5234 18.584C97.0434 18.584 96.6114 18.712 96.1954 18.952C95.7794 19.208 95.4114 19.56 95.1074 20.008V18.728H93.7314ZM104.537 15.576V17.192H106.025V15.576H104.537ZM102.425 28.616L102.185 29.72C102.393 29.8 102.617 29.864 102.873 29.912C103.113 29.96 103.401 29.976 103.737 29.976C104.185 29.976 104.553 29.912 104.841 29.768C105.129 29.624 105.369 29.416 105.529 29.16C105.689 28.904 105.817 28.6 105.881 28.248C105.945 27.896 105.977 27.512 105.977 27.096V18.728H104.585V27.464C104.585 27.912 104.505 28.248 104.345 28.456C104.185 28.68 103.897 28.776 103.513 28.776C103.289 28.776 103.081 28.776 102.905 28.744C102.729 28.712 102.569 28.68 102.425 28.616ZM112.559 27.256C113.167 27.256 113.727 27.16 114.239 26.952C114.735 26.744 115.151 26.44 115.503 26.056C115.855 25.672 116.111 25.208 116.303 24.664C116.495 24.12 116.591 23.512 116.591 22.824C116.591 22.152 116.495 21.56 116.319 21.016C116.127 20.488 115.871 20.04 115.519 19.656C115.167 19.272 114.751 18.984 114.271 18.776C113.775 18.584 113.215 18.472 112.607 18.472C111.999 18.472 111.439 18.584 110.943 18.792C110.447 19 110.031 19.288 109.679 19.672C109.327 20.056 109.055 20.52 108.863 21.064C108.671 21.608 108.575 22.216 108.575 22.888C108.575 23.56 108.655 24.168 108.847 24.712C109.023 25.256 109.279 25.72 109.631 26.088C109.967 26.472 110.383 26.76 110.879 26.952C111.359 27.16 111.919 27.256 112.559 27.256ZM112.575 26.104C112.127 26.104 111.743 26.024 111.423 25.864C111.103 25.704 110.831 25.48 110.639 25.192C110.431 24.904 110.287 24.568 110.191 24.168C110.095 23.784 110.047 23.336 110.047 22.856C110.047 22.376 110.095 21.944 110.191 21.544C110.287 21.16 110.431 20.824 110.639 20.536C110.847 20.248 111.103 20.024 111.423 19.864C111.743 19.704 112.127 19.624 112.575 19.624C113.023 19.624 113.407 19.704 113.727 19.864C114.047 20.024 114.303 20.248 114.511 20.536C114.719 20.824 114.879 21.16 114.975 21.544C115.071 21.944 115.119 22.376 115.119 22.84C115.119 23.32 115.071 23.768 114.975 24.168C114.879 24.568 114.719 24.904 114.511 25.192C114.303 25.48 114.047 25.704 113.727 25.864C113.407 26.024 113.023 26.104 112.575 26.104ZM119.108 18.728V24.216C119.108 25.24 119.316 25.992 119.732 26.504C120.148 27.016 120.836 27.256 121.78 27.256C122.324 27.256 122.82 27.144 123.3 26.888C123.764 26.648 124.196 26.264 124.612 25.72V27H125.988V18.728H124.596V23.624C124.596 24.04 124.516 24.392 124.388 24.648C124.244 24.904 124.036 25.16 123.78 25.384C123.268 25.832 122.708 26.056 122.1 26.056C121.524 26.056 121.124 25.896 120.868 25.576C120.612 25.256 120.5 24.712 120.5 23.944V18.728H119.108ZM128.825 18.728V27H130.217V22.088C130.217 21.736 130.281 21.432 130.409 21.16C130.537 20.904 130.729 20.664 130.969 20.456C131.193 20.248 131.449 20.104 131.721 20.008C131.977 19.912 132.249 19.864 132.505 19.864C132.633 19.864 132.745 19.88 132.857 19.896C132.953 19.912 133.065 19.928 133.177 19.944L133.353 18.648C133.145 18.616 132.905 18.584 132.617 18.584C132.137 18.584 131.705 18.712 131.289 18.952C130.873 19.208 130.505 19.56 130.201 20.008V18.728H128.825ZM135.385 18.728V27H136.777V22.104C136.777 21.688 136.841 21.352 136.985 21.096C137.113 20.84 137.321 20.584 137.593 20.344C137.833 20.12 138.105 19.944 138.409 19.832C138.713 19.736 139.016 19.672 139.337 19.672C139.913 19.672 140.329 19.832 140.617 20.152C140.889 20.472 141.033 21 141.033 21.768V27H142.425V21.496C142.425 20.504 142.185 19.752 141.737 19.24C141.289 18.728 140.585 18.472 139.657 18.472C139.113 18.472 138.585 18.6 138.105 18.824C137.609 19.064 137.161 19.448 136.761 19.992V18.728H135.385ZM152.361 24.68H151.017C150.889 25.128 150.681 25.496 150.361 25.752C150.041 26.008 149.529 26.136 148.841 26.136C148.425 26.136 148.073 26.072 147.769 25.912C147.449 25.768 147.193 25.56 146.985 25.304C146.777 25.048 146.617 24.728 146.505 24.376C146.393 24.024 146.345 23.624 146.345 23.208H152.489V22.504C152.489 21.928 152.409 21.384 152.265 20.888C152.121 20.408 151.897 19.976 151.609 19.624C151.321 19.272 150.937 18.984 150.489 18.776C150.025 18.584 149.481 18.472 148.841 18.472C148.265 18.472 147.753 18.584 147.273 18.776C146.793 18.968 146.377 19.256 146.025 19.624C145.673 20.008 145.417 20.472 145.225 21.016C145.033 21.576 144.937 22.216 144.937 22.92C144.937 24.296 145.273 25.352 145.945 26.12C146.617 26.888 147.577 27.256 148.841 27.256C149.897 27.256 150.713 27.032 151.289 26.568C151.865 26.12 152.217 25.48 152.361 24.68ZM151.097 22.168H146.377C146.441 21.32 146.681 20.664 147.097 20.216C147.513 19.768 148.089 19.544 148.825 19.544C149.225 19.544 149.577 19.608 149.865 19.736C150.153 19.864 150.377 20.056 150.569 20.28C150.745 20.504 150.873 20.776 150.969 21.096C151.049 21.416 151.097 21.784 151.097 22.168ZM155.002 28.76L154.73 29.88C154.97 29.976 155.194 30.024 155.402 30.056C155.594 30.088 155.834 30.104 156.09 30.104C156.442 30.104 156.746 30.056 157.002 29.96C157.258 29.864 157.466 29.704 157.658 29.496C157.834 29.304 157.994 29.064 158.154 28.776C158.298 28.488 158.442 28.168 158.602 27.784L162.218 18.728H160.682L158.298 25.224L155.69 18.728H154.074L157.578 26.792L157.242 27.672C157.05 28.152 156.874 28.488 156.682 28.664C156.49 28.84 156.234 28.92 155.898 28.92C155.594 28.92 155.29 28.872 155.002 28.76Z" fill="white"/>
</svg>
