<svg width="327" height="76" viewBox="0 0 327 76" fill="none" xmlns="http://www.w3.org/2000/svg">
<rect width="327" height="75.4287" rx="3" fill="#BEA683" fill-opacity="0.8"/>
<path d="M46.024 41.352H44.152V33.224H46.36C47.576 33.224 48.44 33.592 48.984 34.296C49.512 35 49.784 35.992 49.784 37.24C49.784 37.88 49.704 38.44 49.576 38.936C49.432 39.448 49.208 39.88 48.904 40.232C48.6 40.6 48.216 40.872 47.736 41.064C47.256 41.256 46.696 41.352 46.024 41.352ZM46.344 31.576H42.216V43H45.96C46.856 43 47.672 42.888 48.392 42.632C49.112 42.392 49.72 42.024 50.232 41.544C50.728 41.064 51.112 40.456 51.384 39.736C51.64 39.016 51.784 38.184 51.784 37.224C51.784 36.28 51.656 35.448 51.4 34.744C51.144 34.04 50.792 33.448 50.328 32.968C49.848 32.504 49.288 32.152 48.616 31.928C47.944 31.704 47.176 31.576 46.344 31.576ZM58.1734 41.784C57.3734 41.784 56.8134 41.528 56.4614 40.984C56.1094 40.456 55.9494 39.736 55.9494 38.824C55.9494 37.928 56.1254 37.224 56.4774 36.696C56.8294 36.168 57.4054 35.896 58.1734 35.896C58.9414 35.896 59.5014 36.168 59.8534 36.68C60.2054 37.208 60.3974 37.928 60.3974 38.824C60.3974 39.752 60.2054 40.472 59.8534 41C59.5014 41.528 58.9414 41.784 58.1734 41.784ZM58.1574 43.256C58.7654 43.256 59.3094 43.16 59.8214 42.968C60.3174 42.776 60.7494 42.504 61.1174 42.12C61.4854 41.736 61.7734 41.272 61.9814 40.728C62.1734 40.184 62.2854 39.544 62.2854 38.808C62.2854 38.168 62.1894 37.592 62.0134 37.048C61.8374 36.504 61.5814 36.04 61.2294 35.656C60.8774 35.272 60.4614 34.984 59.9494 34.76C59.4374 34.536 58.8454 34.424 58.1894 34.424C57.5334 34.424 56.9574 34.536 56.4454 34.744C55.9334 34.968 55.5014 35.256 55.1494 35.64C54.7974 36.024 54.5254 36.488 54.3334 37.032C54.1414 37.576 54.0614 38.184 54.0614 38.84C54.0614 40.248 54.4134 41.336 55.1334 42.104C55.8374 42.872 56.8454 43.256 58.1574 43.256ZM65.6522 34.68H63.6682L66.0842 43H67.8762L69.5722 36.952L71.2523 43H73.0603L75.4923 34.68H73.5883L72.1803 40.76L70.4843 34.744H68.8203L67.0602 40.76L65.6522 34.68ZM79.1031 34.68H77.3431V43H79.1511V38.04C79.1511 37.768 79.1991 37.512 79.3111 37.256C79.4231 37 79.5831 36.776 79.7751 36.584C79.9671 36.392 80.1911 36.248 80.4631 36.136C80.7351 36.024 81.0391 35.96 81.3591 35.96C81.8391 35.96 82.1911 36.104 82.4471 36.376C82.6871 36.648 82.8151 37.112 82.8151 37.784V43H84.6391V37.496C84.6391 35.448 83.7111 34.424 81.8551 34.424C81.3111 34.424 80.8151 34.552 80.3511 34.776C79.8871 35.016 79.4711 35.384 79.1031 35.896V34.68ZM89.18 31.576H87.356V43H89.18V31.576ZM95.8015 41.784C95.0015 41.784 94.4415 41.528 94.0895 40.984C93.7375 40.456 93.5775 39.736 93.5775 38.824C93.5775 37.928 93.7535 37.224 94.1055 36.696C94.4575 36.168 95.0335 35.896 95.8015 35.896C96.5695 35.896 97.1295 36.168 97.4815 36.68C97.8335 37.208 98.0255 37.928 98.0255 38.824C98.0255 39.752 97.8335 40.472 97.4815 41C97.1295 41.528 96.5695 41.784 95.8015 41.784ZM95.7855 43.256C96.3935 43.256 96.9375 43.16 97.4495 42.968C97.9455 42.776 98.3775 42.504 98.7455 42.12C99.1135 41.736 99.4015 41.272 99.6095 40.728C99.8015 40.184 99.9135 39.544 99.9135 38.808C99.9135 38.168 99.8175 37.592 99.6415 37.048C99.4655 36.504 99.2095 36.04 98.8575 35.656C98.5055 35.272 98.0895 34.984 97.5775 34.76C97.0655 34.536 96.4735 34.424 95.8175 34.424C95.1615 34.424 94.5855 34.536 94.0735 34.744C93.5615 34.968 93.1295 35.256 92.7775 35.64C92.4255 36.024 92.1535 36.488 91.9615 37.032C91.7695 37.576 91.6895 38.184 91.6895 38.84C91.6895 40.248 92.0415 41.336 92.7615 42.104C93.4655 42.872 94.4735 43.256 95.7855 43.256ZM106.267 39.112L107.435 39.064V39.544C107.435 40.248 107.243 40.792 106.859 41.192C106.475 41.608 105.883 41.8 105.083 41.8C104.635 41.8 104.283 41.704 104.059 41.496C103.835 41.304 103.723 41.016 103.723 40.648C103.723 40.456 103.739 40.264 103.803 40.088C103.867 39.912 103.979 39.752 104.171 39.624C104.347 39.496 104.603 39.384 104.939 39.288C105.275 39.208 105.723 39.144 106.267 39.112ZM107.467 41.912V43H109.211V37.8C109.211 37.32 109.147 36.872 109.051 36.456C108.955 36.04 108.779 35.688 108.523 35.384C108.267 35.096 107.915 34.856 107.483 34.68C107.051 34.52 106.507 34.424 105.851 34.424C104.827 34.424 104.011 34.616 103.435 34.984C102.843 35.368 102.475 35.96 102.331 36.76L103.995 36.936C104.075 36.584 104.251 36.296 104.523 36.104C104.795 35.912 105.211 35.816 105.787 35.816C106.267 35.816 106.667 35.944 106.971 36.184C107.275 36.424 107.435 36.856 107.435 37.48V37.832L106.203 37.896C105.691 37.928 105.179 37.976 104.667 38.056C104.155 38.136 103.691 38.28 103.275 38.472C102.859 38.68 102.539 38.968 102.283 39.32C102.027 39.672 101.899 40.136 101.899 40.712C101.899 41.144 101.963 41.512 102.107 41.832C102.251 42.152 102.443 42.408 102.699 42.6C102.955 42.808 103.243 42.968 103.595 43.064C103.931 43.16 104.299 43.208 104.699 43.208C105.339 43.208 105.883 43.096 106.331 42.84C106.779 42.6 107.147 42.296 107.467 41.912ZM117.781 38.664V39.096C117.781 40.024 117.573 40.696 117.157 41.128C116.741 41.56 116.213 41.768 115.557 41.768C115.269 41.768 114.997 41.72 114.757 41.608C114.501 41.512 114.293 41.336 114.101 41.096C113.909 40.872 113.765 40.568 113.669 40.184C113.573 39.816 113.525 39.368 113.525 38.824C113.525 37.848 113.701 37.112 114.069 36.632C114.437 36.152 114.965 35.912 115.637 35.912C115.925 35.912 116.197 35.96 116.453 36.056C116.709 36.152 116.949 36.296 117.141 36.504C117.333 36.712 117.493 37 117.605 37.352C117.717 37.704 117.781 38.152 117.781 38.664ZM117.797 41.848V43H119.573V31.576H117.765V35.608C117.445 35.224 117.109 34.952 116.757 34.792C116.405 34.632 116.053 34.52 115.685 34.472C115.557 34.472 115.445 34.456 115.349 34.456C115.237 34.456 115.125 34.456 115.029 34.456C114.469 34.488 113.973 34.616 113.557 34.84C113.141 35.08 112.789 35.4 112.501 35.784C112.213 36.168 111.989 36.632 111.845 37.16C111.685 37.688 111.621 38.248 111.621 38.856C111.621 39.512 111.685 40.104 111.829 40.648C111.973 41.192 112.197 41.656 112.485 42.04C112.773 42.424 113.125 42.728 113.573 42.936C114.005 43.16 114.517 43.256 115.125 43.256C115.701 43.256 116.197 43.144 116.629 42.904C117.061 42.68 117.445 42.328 117.797 41.848ZM126.717 44.472L126.381 45.864C126.637 45.96 126.893 46.024 127.133 46.056C127.357 46.088 127.613 46.104 127.901 46.104C128.317 46.104 128.685 46.04 128.973 45.912C129.261 45.784 129.517 45.576 129.741 45.32C129.949 45.064 130.141 44.76 130.317 44.376C130.477 44.008 130.669 43.576 130.861 43.08L134.173 34.68H132.189L130.093 40.68L127.805 34.68H125.693L129.197 42.712L128.893 43.512C128.733 43.944 128.557 44.232 128.381 44.392C128.189 44.552 127.949 44.616 127.629 44.616C127.277 44.616 126.973 44.568 126.717 44.472ZM139.38 41.784C138.58 41.784 138.02 41.528 137.668 40.984C137.316 40.456 137.156 39.736 137.156 38.824C137.156 37.928 137.332 37.224 137.684 36.696C138.036 36.168 138.612 35.896 139.38 35.896C140.148 35.896 140.708 36.168 141.06 36.68C141.412 37.208 141.604 37.928 141.604 38.824C141.604 39.752 141.412 40.472 141.06 41C140.708 41.528 140.148 41.784 139.38 41.784ZM139.364 43.256C139.972 43.256 140.516 43.16 141.028 42.968C141.524 42.776 141.956 42.504 142.324 42.12C142.692 41.736 142.98 41.272 143.188 40.728C143.38 40.184 143.492 39.544 143.492 38.808C143.492 38.168 143.396 37.592 143.22 37.048C143.044 36.504 142.788 36.04 142.436 35.656C142.084 35.272 141.668 34.984 141.156 34.76C140.644 34.536 140.052 34.424 139.396 34.424C138.74 34.424 138.164 34.536 137.652 34.744C137.14 34.968 136.708 35.256 136.356 35.64C136.004 36.024 135.732 36.488 135.54 37.032C135.348 37.576 135.268 38.184 135.268 38.84C135.268 40.248 135.62 41.336 136.34 42.104C137.044 42.872 138.052 43.256 139.364 43.256ZM147.75 34.68H145.942V40.2C145.942 41.24 146.15 42.008 146.566 42.504C146.982 43.016 147.686 43.256 148.662 43.256C149.174 43.256 149.654 43.144 150.102 42.904C150.55 42.68 150.966 42.296 151.35 41.784V43H153.126V34.68H151.302V39.64C151.302 39.96 151.238 40.248 151.11 40.504C150.982 40.76 150.806 40.984 150.614 41.16C150.406 41.352 150.166 41.48 149.91 41.576C149.654 41.672 149.398 41.72 149.142 41.72C148.662 41.72 148.31 41.592 148.086 41.336C147.862 41.08 147.75 40.616 147.75 39.912V34.68ZM157.653 34.68H155.893V43H157.701V38.12C157.701 37.896 157.733 37.656 157.829 37.432C157.925 37.208 158.053 37 158.229 36.808C158.405 36.632 158.629 36.488 158.885 36.376C159.141 36.264 159.429 36.2 159.781 36.2C159.925 36.2 160.069 36.216 160.213 36.216C160.341 36.232 160.469 36.248 160.597 36.28L160.805 34.616C160.677 34.6 160.565 34.584 160.437 34.568C160.309 34.568 160.165 34.552 159.989 34.552C159.525 34.552 159.093 34.68 158.693 34.904C158.277 35.144 157.941 35.48 157.653 35.912V34.68ZM168.929 39.112V38.984V38.584C168.929 38.2 168.961 37.832 169.057 37.512C169.137 37.192 169.265 36.904 169.457 36.664C169.633 36.44 169.857 36.248 170.145 36.12C170.433 35.992 170.769 35.928 171.169 35.928C171.425 35.928 171.681 35.992 171.937 36.088C172.193 36.2 172.401 36.376 172.593 36.6C172.769 36.824 172.913 37.128 173.025 37.496C173.137 37.864 173.201 38.312 173.201 38.824C173.201 39.368 173.137 39.832 173.041 40.2C172.929 40.584 172.785 40.888 172.593 41.112C172.401 41.336 172.177 41.512 171.921 41.608C171.665 41.72 171.377 41.768 171.089 41.768C170.801 41.768 170.545 41.736 170.289 41.656C170.033 41.592 169.793 41.448 169.601 41.24C169.409 41.048 169.249 40.776 169.121 40.424C168.993 40.088 168.929 39.656 168.929 39.112ZM168.945 31.576H167.137V43H168.897V42.008C169.249 42.456 169.633 42.776 170.065 42.968C170.481 43.16 170.945 43.256 171.457 43.256C172.001 43.256 172.513 43.16 172.961 42.952C173.409 42.744 173.793 42.44 174.113 42.056C174.433 41.672 174.673 41.208 174.849 40.664C175.009 40.12 175.105 39.496 175.105 38.808C175.105 38.168 175.025 37.576 174.881 37.032C174.737 36.488 174.529 36.024 174.241 35.64C173.953 35.256 173.585 34.968 173.153 34.744C172.705 34.536 172.193 34.424 171.601 34.424C171.025 34.424 170.513 34.552 170.081 34.776C169.649 35 169.265 35.336 168.945 35.768V31.576ZM179.363 34.68H177.603V43H179.411V38.12C179.411 37.896 179.443 37.656 179.539 37.432C179.635 37.208 179.763 37 179.939 36.808C180.115 36.632 180.339 36.488 180.595 36.376C180.851 36.264 181.139 36.2 181.491 36.2C181.635 36.2 181.779 36.216 181.923 36.216C182.051 36.232 182.179 36.248 182.307 36.28L182.515 34.616C182.387 34.6 182.275 34.584 182.147 34.568C182.019 34.568 181.875 34.552 181.699 34.552C181.235 34.552 180.803 34.68 180.403 34.904C179.987 35.144 179.651 35.48 179.363 35.912V34.68ZM187.97 41.784C187.17 41.784 186.61 41.528 186.258 40.984C185.906 40.456 185.746 39.736 185.746 38.824C185.746 37.928 185.922 37.224 186.274 36.696C186.626 36.168 187.202 35.896 187.97 35.896C188.738 35.896 189.298 36.168 189.65 36.68C190.002 37.208 190.194 37.928 190.194 38.824C190.194 39.752 190.002 40.472 189.65 41C189.298 41.528 188.738 41.784 187.97 41.784ZM187.954 43.256C188.562 43.256 189.106 43.16 189.618 42.968C190.114 42.776 190.546 42.504 190.914 42.12C191.282 41.736 191.57 41.272 191.778 40.728C191.97 40.184 192.082 39.544 192.082 38.808C192.082 38.168 191.986 37.592 191.81 37.048C191.634 36.504 191.378 36.04 191.026 35.656C190.674 35.272 190.258 34.984 189.746 34.76C189.234 34.536 188.642 34.424 187.986 34.424C187.33 34.424 186.754 34.536 186.242 34.744C185.73 34.968 185.298 35.256 184.946 35.64C184.594 36.024 184.322 36.488 184.13 37.032C183.938 37.576 183.858 38.184 183.858 38.84C183.858 40.248 184.21 41.336 184.93 42.104C185.634 42.872 186.642 43.256 187.954 43.256ZM201.924 40.088H200.084C200.004 40.632 199.828 41.064 199.54 41.352C199.252 41.64 198.82 41.784 198.276 41.784C197.892 41.784 197.556 41.72 197.3 41.56C197.028 41.4 196.82 41.192 196.66 40.936C196.5 40.68 196.372 40.36 196.308 39.992C196.228 39.64 196.196 39.24 196.196 38.824C196.196 38.472 196.228 38.104 196.292 37.752C196.356 37.4 196.484 37.096 196.644 36.824C196.804 36.552 197.012 36.328 197.284 36.152C197.54 35.992 197.876 35.896 198.292 35.896C198.852 35.896 199.252 36.056 199.492 36.36C199.732 36.68 199.892 37.064 199.988 37.528L201.796 37.256C201.732 36.888 201.62 36.536 201.476 36.184C201.316 35.848 201.108 35.544 200.852 35.288C200.58 35.032 200.244 34.824 199.844 34.664C199.428 34.504 198.932 34.424 198.356 34.424C197.716 34.424 197.14 34.536 196.644 34.744C196.132 34.968 195.716 35.272 195.364 35.656C195.012 36.04 194.756 36.52 194.58 37.064C194.388 37.608 194.308 38.216 194.308 38.872C194.308 39.544 194.388 40.136 194.548 40.68C194.708 41.224 194.948 41.672 195.284 42.056C195.604 42.44 196.02 42.744 196.516 42.952C197.012 43.16 197.604 43.256 198.276 43.256C199.396 43.256 200.244 42.984 200.852 42.424C201.46 41.864 201.812 41.08 201.924 40.088ZM206.135 31.576H204.327V43H206.135V38.04C206.135 37.784 206.183 37.528 206.295 37.272C206.391 37.016 206.551 36.792 206.743 36.6C206.935 36.408 207.159 36.264 207.431 36.136C207.703 36.024 208.007 35.96 208.343 35.96C208.823 35.96 209.175 36.104 209.431 36.376C209.671 36.648 209.799 37.112 209.799 37.784V43H211.623V37.496C211.623 35.448 210.695 34.424 208.839 34.424C208.311 34.424 207.815 34.552 207.351 34.776C206.887 35 206.487 35.352 206.135 35.832V31.576ZM216.068 34.68H214.26V40.2C214.26 41.24 214.468 42.008 214.884 42.504C215.3 43.016 216.004 43.256 216.98 43.256C217.492 43.256 217.972 43.144 218.42 42.904C218.868 42.68 219.284 42.296 219.668 41.784V43H221.444V34.68H219.62V39.64C219.62 39.96 219.556 40.248 219.428 40.504C219.3 40.76 219.124 40.984 218.932 41.16C218.724 41.352 218.484 41.48 218.228 41.576C217.972 41.672 217.716 41.72 217.46 41.72C216.98 41.72 216.628 41.592 216.404 41.336C216.18 41.08 216.068 40.616 216.068 39.912V34.68ZM225.972 34.68H224.212V43H226.02V38.12C226.02 37.896 226.052 37.656 226.148 37.432C226.244 37.208 226.372 37 226.548 36.808C226.724 36.632 226.948 36.488 227.204 36.376C227.46 36.264 227.748 36.2 228.1 36.2C228.244 36.2 228.388 36.216 228.532 36.216C228.66 36.232 228.788 36.248 228.916 36.28L229.124 34.616C228.996 34.6 228.884 34.584 228.756 34.568C228.628 34.568 228.484 34.552 228.308 34.552C227.844 34.552 227.412 34.68 227.012 34.904C226.596 35.144 226.26 35.48 225.972 35.912V34.68ZM238.148 40.536H236.388C236.292 40.952 236.1 41.272 235.812 41.496C235.524 41.72 235.092 41.832 234.516 41.832C233.78 41.832 233.22 41.608 232.868 41.128C232.5 40.664 232.308 40.056 232.292 39.288H238.26V38.488C238.26 37.88 238.18 37.336 238.036 36.84C237.876 36.344 237.652 35.912 237.348 35.56C237.028 35.208 236.644 34.92 236.18 34.728C235.7 34.536 235.156 34.424 234.516 34.424C233.908 34.424 233.364 34.536 232.868 34.728C232.372 34.92 231.94 35.208 231.588 35.592C231.236 35.976 230.948 36.44 230.756 36.984C230.564 37.544 230.468 38.184 230.468 38.888C230.468 40.28 230.804 41.352 231.492 42.12C232.18 42.888 233.188 43.256 234.516 43.256C235.604 43.256 236.452 43.032 237.044 42.552C237.62 42.072 237.988 41.4 238.148 40.536ZM236.484 38.024H232.324C232.372 37.352 232.58 36.824 232.932 36.424C233.284 36.024 233.796 35.816 234.468 35.816C235.172 35.816 235.684 36.024 236.004 36.408C236.324 36.808 236.484 37.352 236.484 38.024ZM246.807 31.576H244.999V43H246.807V38.04C246.807 37.784 246.855 37.528 246.967 37.272C247.063 37.016 247.223 36.792 247.415 36.6C247.607 36.408 247.831 36.264 248.103 36.136C248.375 36.024 248.679 35.96 249.015 35.96C249.495 35.96 249.847 36.104 250.103 36.376C250.343 36.648 250.471 37.112 250.471 37.784V43H252.295V37.496C252.295 35.448 251.367 34.424 249.511 34.424C248.983 34.424 248.487 34.552 248.023 34.776C247.559 35 247.159 35.352 246.807 35.832V31.576ZM262.388 40.536H260.628C260.532 40.952 260.34 41.272 260.052 41.496C259.764 41.72 259.332 41.832 258.756 41.832C258.02 41.832 257.46 41.608 257.108 41.128C256.74 40.664 256.548 40.056 256.532 39.288H262.5V38.488C262.5 37.88 262.42 37.336 262.276 36.84C262.116 36.344 261.892 35.912 261.588 35.56C261.268 35.208 260.884 34.92 260.42 34.728C259.94 34.536 259.396 34.424 258.756 34.424C258.148 34.424 257.604 34.536 257.108 34.728C256.612 34.92 256.18 35.208 255.828 35.592C255.476 35.976 255.188 36.44 254.996 36.984C254.804 37.544 254.708 38.184 254.708 38.888C254.708 40.28 255.044 41.352 255.732 42.12C256.42 42.888 257.428 43.256 258.756 43.256C259.844 43.256 260.692 43.032 261.284 42.552C261.86 42.072 262.228 41.4 262.388 40.536ZM260.724 38.024H256.564C256.612 37.352 256.82 36.824 257.172 36.424C257.524 36.024 258.036 35.816 258.708 35.816C259.412 35.816 259.924 36.024 260.244 36.408C260.564 36.808 260.724 37.352 260.724 38.024ZM266.738 34.68H264.978V43H266.786V38.12C266.786 37.896 266.818 37.656 266.914 37.432C267.01 37.208 267.138 37 267.314 36.808C267.49 36.632 267.714 36.488 267.97 36.376C268.226 36.264 268.514 36.2 268.866 36.2C269.01 36.2 269.154 36.216 269.298 36.216C269.426 36.232 269.554 36.248 269.682 36.28L269.89 34.616C269.762 34.6 269.65 34.584 269.522 34.568C269.394 34.568 269.25 34.552 269.074 34.552C268.61 34.552 268.178 34.68 267.778 34.904C267.362 35.144 267.026 35.48 266.738 35.912V34.68ZM278.913 40.536H277.153C277.057 40.952 276.865 41.272 276.577 41.496C276.289 41.72 275.857 41.832 275.281 41.832C274.545 41.832 273.985 41.608 273.633 41.128C273.265 40.664 273.073 40.056 273.057 39.288H279.025V38.488C279.025 37.88 278.945 37.336 278.801 36.84C278.641 36.344 278.417 35.912 278.113 35.56C277.793 35.208 277.409 34.92 276.945 34.728C276.465 34.536 275.921 34.424 275.281 34.424C274.673 34.424 274.129 34.536 273.633 34.728C273.137 34.92 272.705 35.208 272.353 35.592C272.001 35.976 271.713 36.44 271.521 36.984C271.329 37.544 271.233 38.184 271.233 38.888C271.233 40.28 271.569 41.352 272.257 42.12C272.945 42.888 273.953 43.256 275.281 43.256C276.369 43.256 277.217 43.032 277.809 42.552C278.385 42.072 278.753 41.4 278.913 40.536ZM277.249 38.024H273.089C273.137 37.352 273.345 36.824 273.697 36.424C274.049 36.024 274.561 35.816 275.233 35.816C275.937 35.816 276.449 36.024 276.769 36.408C277.089 36.808 277.249 37.352 277.249 38.024Z" fill="white"/>
</svg>
