<svg width="524" height="68" viewBox="0 0 524 68" fill="none" xmlns="http://www.w3.org/2000/svg">
<path fill-rule="evenodd" clip-rule="evenodd" d="M274.621 11H272.039H253.689L222 39H241.185C245.495 39 249.65 37.4223 252.815 34.59L260.912 28.089C276.019 28.184 293.689 28.26 298.291 28.0509C306.718 27.6708 322 11 322 11H274.621Z" fill="#D8D6D6"/>
<path fill-rule="evenodd" clip-rule="evenodd" d="M192.921 61L199 68H190.123L188 65.8612C189.216 64.578 190.933 62.8476 192.921 61Z" fill="#D8D6D6"/>
<path fill-rule="evenodd" clip-rule="evenodd" d="M201.24 54L213 68H205.443L196 58.188C197.696 56.6938 199.487 55.2387 201.24 54Z" fill="#D8D6D6"/>
<path fill-rule="evenodd" clip-rule="evenodd" d="M226 68H218.991L204 53.1746C206.172 51.9455 208.229 51.1135 209.981 51.0378C210.267 51.0189 210.609 51.0189 210.991 51L226 68Z" fill="#D8D6D6"/>
<path fill-rule="evenodd" clip-rule="evenodd" d="M223.713 51L239 68H230.469L213 51.0564C215.664 51.0188 219.312 51 223.481 51H223.713Z" fill="#D8D6D6"/>
<path fill-rule="evenodd" clip-rule="evenodd" d="M265.936 57.8491L262.019 54.0094L265.666 58.0964L260.842 62.3923L251.273 53.002L260.167 63.0008L254.785 67.772L238.309 51.6143L252.894 68H243.518L226 50.816C232.598 50.816 240.257 50.854 247.338 50.911L255.383 44.41C258.547 41.5777 262.676 40 266.939 40H286L265.936 57.8491Z" fill="#D8D6D6"/>
<path fill-rule="evenodd" clip-rule="evenodd" d="M36.082 49L37 50C35.7541 49.9841 35 49.9524 35 49.9524L36.082 49Z" fill="#D8D6D6"/>
<path fill-rule="evenodd" clip-rule="evenodd" d="M41.3773 43L47 50C44.9811 50 43.0377 49.9794 41.3019 49.9588L38 46.3559L41.3773 43Z" fill="#D8D6D6"/>
<path fill-rule="evenodd" clip-rule="evenodd" d="M47.8613 38L58 49.8829C56.2117 49.9414 54.2335 49.9805 52.2172 50L44 41.6098L47.8613 38Z" fill="#D8D6D6"/>
<path fill-rule="evenodd" clip-rule="evenodd" d="M66 46.9623C64.5469 47.849 63.1338 48.5472 61.8185 49L49 36.7358L53.2598 33L66 46.9623Z" fill="#D8D6D6"/>
<path fill-rule="evenodd" clip-rule="evenodd" d="M60.0193 29L72 42.4468C70.9041 43.3546 69.8076 44.2057 68.7307 45L55 31.5532L55.5192 31.0804C56.6539 30.2293 58.2306 29.5296 60.0193 29Z" fill="#D8D6D6"/>
<path fill-rule="evenodd" clip-rule="evenodd" d="M87 28C87 28 82.6932 33.0556 77.1678 38.325L69.4589 30.7417L76.6364 38.8306C75.4962 39.9 74.3361 40.9694 73.1364 42L60 29.0695C62.4979 28.3694 65.408 28 68.2203 28H87Z" fill="#D8D6D6"/>
<path fill-rule="evenodd" clip-rule="evenodd" d="M4.71143 37L11 44H2.83485L0 41.2389L4.71143 37Z" fill="#D8D6D6"/>
<path fill-rule="evenodd" clip-rule="evenodd" d="M10.0959 32L21 44C20.8247 44 20.6495 44 20.4743 44H16.5995L7 34.7606L10.0959 32Z" fill="#D8D6D6"/>
<path fill-rule="evenodd" clip-rule="evenodd" d="M16.134 26L30 41.4898C28.5956 42.1481 27.1318 42.6708 25.6088 43L12 29.7369L16.134 26Z" fill="#D8D6D6"/>
<path fill-rule="evenodd" clip-rule="evenodd" d="M21.9423 21L36 36.7235L34.5385 38.0228C33.7115 38.7572 32.8462 39.4162 31.9231 40L17 25.4629L21.9423 21Z" fill="#D8D6D6"/>
<path fill-rule="evenodd" clip-rule="evenodd" d="M27.4941 16L42 32.0615L37.5534 36L22 20.9376L27.4941 16Z" fill="#D8D6D6"/>
<path fill-rule="evenodd" clip-rule="evenodd" d="M126 0C126 0 107.963 20.0075 98.0199 20.4728C95.4129 20.5891 89.225 20.6473 81.5203 20.6473C73.2116 20.6473 63.152 20.5891 53.9098 20.531L47.9363 25.9399L35.0749 13.1833L47.0218 26.7736L42.352 31L27 15.7617L44.181 0H126Z" fill="#D8D6D6"/>
<path fill-rule="evenodd" clip-rule="evenodd" d="M59.7225 29.4311C59.5855 29.4656 59.4485 29.5 59.2775 29.5689L59.7225 29.4311Z" fill="#D8D6D6"/>
<path fill-rule="evenodd" clip-rule="evenodd" d="M101.302 28H109.8C109.897 28.1159 110.383 30.5303 111.258 35.2045C113.028 44.6304 113.942 49.5365 114 49.9614L113.981 50H104.18C104.044 49.8069 103.227 45.6155 101.749 37.4065C101.555 36.4214 101.438 35.9385 101.399 35.9385C90.0038 45.1133 84.1509 49.8069 83.8593 50H74L74.0583 49.9035C91.5792 35.784 100.66 28.4829 101.302 28Z" fill="#D8D6D6"/>
<path fill-rule="evenodd" clip-rule="evenodd" d="M135.782 28H163.916C163.993 28.0193 164.013 28.0386 163.993 28.0965L161.362 33.1185C161.323 33.1958 161.265 33.2151 161.187 33.2151H135.453C133.943 33.3696 132.918 33.9491 132.396 34.9342C132.047 35.6102 132.222 36.1124 132.918 36.46C133.131 36.5566 133.421 36.5952 133.789 36.5952H151.28C153.738 36.5952 155.499 37.4065 156.543 39.0097C157.124 40.1106 157.066 41.3082 156.408 42.5637L155.615 44.0896C154.493 46.2336 152.074 47.9719 148.34 49.3047C146.85 49.7682 145.437 50 144.102 50H116.084C116.007 50 115.987 49.9614 116.007 49.9035L118.638 44.8815C118.677 44.8235 118.735 44.8042 118.813 44.8042H144.431C145.476 44.8042 146.385 44.4179 147.198 43.6646C147.43 43.3363 147.565 43.1431 147.604 43.0852C147.972 42.4091 147.798 41.8876 147.12 41.54C146.908 41.4434 146.617 41.4048 146.231 41.4048H128.99C126.146 41.4048 124.25 40.4969 123.302 38.662C122.914 37.6576 123.011 36.6145 123.592 35.5136L124.385 33.9877C125.449 31.9789 127.655 30.3178 131.041 29.0044C132.88 28.4056 134.466 28.0772 135.782 28Z" fill="#D8D6D6"/>
<path fill-rule="evenodd" clip-rule="evenodd" d="M166.819 28H202.916C202.993 28.0193 203.013 28.0386 202.993 28.0965L200.373 33.1185C200.335 33.1958 200.277 33.2151 200.2 33.2151H186.408L177.683 49.9035C177.644 49.9807 177.586 50 177.51 50H169.265C169.189 50 169.169 49.9614 169.189 49.9035L177.914 33.2344H164.084C164.007 33.2344 163.988 33.1958 164.007 33.1378L166.626 28.1159C166.704 28.0386 166.761 28 166.819 28Z" fill="#D8D6D6"/>
<path fill-rule="evenodd" clip-rule="evenodd" d="M294.759 40H328.922C329 40.0193 329.019 40.0386 328.981 40.0966L326.319 45.1186C326.28 45.1958 326.222 45.2151 326.143 45.2151H291.981C291.903 45.2151 291.883 45.1765 291.922 45.1186L294.583 40.0966C294.642 40.0386 294.7 40 294.759 40ZM290.181 48.6146H324.343C324.421 48.6339 324.441 48.6532 324.402 48.7112L321.976 53.2889C321.937 53.3661 321.878 53.3855 321.8 53.3855H287.637C287.559 53.3855 287.54 53.3468 287.578 53.2889L290.005 48.7112C290.064 48.6532 290.122 48.6146 290.181 48.6146ZM320 56.8044H285.837C285.778 56.8044 285.72 56.8234 285.68 56.8816L283.02 61.9038C282.98 61.9614 283 62 283.078 62H317.241C317.319 62 317.378 61.981 317.417 61.9038L320.078 56.8816C320.097 56.8234 320.078 56.8044 320 56.8044Z" fill="#D8D6D6"/>
<path fill-rule="evenodd" clip-rule="evenodd" d="M339.709 40H365.922C366 40.0193 366.019 40.0386 365.98 40.0967L363.348 45.1231C363.309 45.2004 363.251 45.2197 363.173 45.2197H341.219C339.225 45.2197 337.405 46.1863 335.721 48.1196C335.488 48.4676 335.333 48.7382 335.237 48.9123L332.991 53.1847C332.139 54.8086 332.449 55.9299 333.921 56.5869C334.211 56.7225 334.617 56.7998 335.121 56.7998H357.075C357.152 56.7998 357.172 56.8194 357.152 56.8771L354.52 61.9037C354.481 61.981 354.423 62 354.345 62H328.306C325.615 62 323.873 61.0339 323.118 59.0809C322.866 58.0952 323.021 57.0899 323.562 56.0459L328.945 45.7804C329.894 43.9825 331.868 42.4166 334.869 41.0633C336.747 40.3673 338.354 40 339.709 40Z" fill="#D8D6D6"/>
<path fill-rule="evenodd" clip-rule="evenodd" d="M369.124 40.0193H376.81C376.887 40.0386 376.906 40.058 376.868 40.1159L370.17 52.8638C369.163 54.7953 369.434 56.0508 371.022 56.6304C371.389 56.7462 371.757 56.7848 372.144 56.7848H386.275L395.044 40.0966C395.102 40.0193 395.16 40 395.218 40H402.923C403 40.0193 403.019 40.0386 402.981 40.0966L391.521 61.9032C391.483 61.9804 391.425 62 391.347 62H364.963C362.718 62 361.149 61.169 360.259 59.4887C359.833 58.407 359.93 57.2678 360.569 56.0508L368.95 40.0966C369.008 40.058 369.066 40.0193 369.124 40.0193Z" fill="#D8D6D6"/>
<path fill-rule="evenodd" clip-rule="evenodd" d="M431.742 40H405.625C405.567 40 405.509 40.0387 405.489 40.0773L394.02 61.9037C393.981 61.9614 394 62 394.078 62H401.769C401.846 62 401.905 61.981 401.944 61.9037L405.063 55.9492H417.094C417.927 59.7575 418.392 61.7681 418.509 62H427.886L428.021 61.9614L426.588 55.5046L427.789 55.1179C431.063 53.7647 433.233 52.0634 434.318 49.9949L436.411 46.0124C437.089 44.7171 437.185 43.5185 436.682 42.4166C435.771 40.812 434.105 40 431.742 40ZM407.795 50.7488L410.682 45.2391H425.832C426.239 45.2391 426.607 45.2778 426.936 45.3744C427.963 45.8191 428.118 46.689 427.421 48.0229C427.266 48.3129 427.092 48.5836 426.878 48.8736C425.793 50.1302 424.457 50.7488 422.848 50.7488H407.795Z" fill="#D8D6D6"/>
<path fill-rule="evenodd" clip-rule="evenodd" d="M442.396 40H449.924C450 40.0193 450.019 40.0386 449.981 40.0966L438.775 61.9032C438.737 61.9804 438.68 62 438.604 62H431.076C431 62 430.981 61.9614 431.019 61.9032L442.245 40.0966C442.283 40.0386 442.34 40 442.396 40Z" fill="#D8D6D6"/>
<path fill-rule="evenodd" clip-rule="evenodd" d="M453.849 40H487.922C488 40.0193 488.019 40.0386 487.981 40.0967L485.326 45.1231C485.288 45.2004 485.229 45.2197 485.151 45.2197H472.134L463.294 61.9037C463.255 61.981 463.197 62 463.119 62H455.352C455.274 62 455.254 61.9614 455.293 61.9037L464.134 45.2197H451.078C451 45.2197 450.98 45.1811 451.02 45.1231L453.674 40.0967C453.732 40.0386 453.791 40 453.849 40Z" fill="#D8D6D6"/>
<path fill-rule="evenodd" clip-rule="evenodd" d="M490.135 40H497.92L502.46 48.7498C511.346 43.0325 515.906 40.1159 516.138 40H523.923C524 40.0193 524.019 40.0386 523.981 40.0966C522.938 40.734 516.389 44.9254 504.334 52.6901L499.504 61.9032C499.466 61.9804 499.408 62 499.33 62H491.642C491.564 62 491.545 61.9614 491.584 61.9032L496.414 52.6901L490 40.058L490.135 40Z" fill="#D8D6D6"/>
</svg>
