<svg width="209" height="103" viewBox="0 0 209 103" fill="none" xmlns="http://www.w3.org/2000/svg">
<path fill-rule="evenodd" clip-rule="evenodd" d="M151.208 35H148.042H125.677L87 69H110.409C115.664 69 120.72 67.0933 124.616 63.6351L134.497 55.749C152.916 55.8785 174.484 55.9592 180.088 55.7006C190.366 55.2319 209 35 209 35H151.208Z" fill="#D8D6D6"/>
<path fill-rule="evenodd" clip-rule="evenodd" d="M48.8062 94L56 103H45.5201L43 100.251C44.4515 98.5876 46.4772 96.3638 48.8062 94Z" fill="#D8D6D6"/>
<path fill-rule="evenodd" clip-rule="evenodd" d="M60.7757 87L76 103H66.2203L54 91.7937C56.2016 90.0961 58.5057 88.4302 60.7757 87Z" fill="#D8D6D6"/>
<path fill-rule="evenodd" clip-rule="evenodd" d="M91 103H82.3979L64 83.8099C66.6494 82.2164 69.1841 81.1542 71.3429 81.0513C71.6863 81.0343 72.1114 81.017 72.5856 81L91 103Z" fill="#D8D6D6"/>
<path fill-rule="evenodd" clip-rule="evenodd" d="M87.5742 81L107 103H96.1716L74 81.0682C77.3808 81.0172 82.0142 81 87.3166 81H87.5742Z" fill="#D8D6D6"/>
<path fill-rule="evenodd" clip-rule="evenodd" d="M138.91 90.67L134.017 85.9999L138.573 90.9773L132.532 96.1967L120.569 84.7879L131.672 96.9241L124.956 102.725L104.371 83.0912L122.594 103H110.884L89 82.1215C97.2338 82.1215 106.801 82.1702 115.659 82.2347L125.715 74.3488C129.664 70.9067 134.827 69 140.176 69H164L138.91 90.67Z" fill="#D8D6D6"/>
<path fill-rule="evenodd" clip-rule="evenodd" d="M44.1839 60L46 62C43.4942 61.956 42 61.912 42 61.912L44.1839 60Z" fill="#D8D6D6"/>
<path fill-rule="evenodd" clip-rule="evenodd" d="M51.129 53L58 60C55.5322 60 53.1452 59.9857 51.0324 59.9569L47 56.3703L51.129 53Z" fill="#D8D6D6"/>
<path fill-rule="evenodd" clip-rule="evenodd" d="M57.9621 47L71 60.8566C68.6901 60.9362 66.158 60.9681 63.5743 61L53 51.2049L57.9621 47Z" fill="#D8D6D6"/>
<path fill-rule="evenodd" clip-rule="evenodd" d="M80 57.4421C78.2863 58.5478 76.621 59.4225 75.085 60L60 44.6701L65.0121 40L80 57.4421Z" fill="#D8D6D6"/>
<path fill-rule="evenodd" clip-rule="evenodd" d="M73.4798 36L89 52.8072C87.589 53.9321 86.1781 55.0074 84.7671 56L67 39.1928L67.6794 38.6138C69.1253 37.5385 71.1459 36.6617 73.4798 36Z" fill="#D8D6D6"/>
<path fill-rule="evenodd" clip-rule="evenodd" d="M106 34.0157C106 34.0157 100.741 39.7943 93.9862 45.8059L84.577 37.1536L93.3309 46.3806C91.9531 47.6078 90.5081 48.8193 89.0464 50L73 35.2272C76.0413 34.4195 79.5865 34 83.031 34H106V34.0157Z" fill="#D8D6D6"/>
<path fill-rule="evenodd" clip-rule="evenodd" d="M5.56671 45L13 54H3.35325L0 50.4563L5.56671 45Z" fill="#D8D6D6"/>
<path fill-rule="evenodd" clip-rule="evenodd" d="M12.5486 38L25 51.9848C24.7977 51.9848 24.6109 52 24.4086 52H19.9728L9 41.2356L12.5486 38Z" fill="#D8D6D6"/>
<path fill-rule="evenodd" clip-rule="evenodd" d="M19.043 32L36 50.2149C34.2906 50.9958 32.4969 51.6015 30.6354 52L14 36.3983L19.043 32Z" fill="#D8D6D6"/>
<path fill-rule="evenodd" clip-rule="evenodd" d="M26.2255 26L44 45.0284L42.1462 46.6076C41.1084 47.4849 40.0031 48.2823 38.8462 49L20 31.3911L26.2255 26Z" fill="#D8D6D6"/>
<path fill-rule="evenodd" clip-rule="evenodd" d="M33.6058 20L51 38.4836L45.6722 43L27 25.6765L33.6058 20Z" fill="#D8D6D6"/>
<path fill-rule="evenodd" clip-rule="evenodd" d="M155 0C155 0 133.123 24.5402 121.087 25.1059C117.917 25.2556 110.421 25.3056 101.092 25.3056C91.0209 25.3056 78.8193 25.239 67.6087 25.1558L60.377 31.7943L44.7743 16.1383L59.2707 32.8091L53.6076 38L35 19.3161L55.7871 0H155Z" fill="#D8D6D6"/>
</svg>
