<svg width="269" height="59" viewBox="0 0 269 59" fill="none" xmlns="http://www.w3.org/2000/svg">
<path fill-rule="evenodd" clip-rule="evenodd" d="M70.7836 18.304H45.6309C45.6309 11.648 41.3646 10.816 35.3918 10.816C29.8642 10.816 26.4511 12.48 26.4511 16.2059C26.4511 20.3659 29.419 21.5959 38.3968 21.5959C60.9897 21.5959 70.7836 25.7559 72.4901 35.7399L86.9956 0.832001H118.974L134.741 38.2359L150.471 0.832001H182.45L199.923 42.3959V0.832001H251.082C263.88 0.832001 267.293 9.98401 267.293 14.976C267.293 19.968 265.179 26.624 255.348 27.854C266.44 29.12 269 37.4039 269 42.3959C269 48.2199 264.734 57.7698 253.233 57.7698H184.156L180.298 48.6178H152.177L148.319 57.7698H121.052L117.231 48.6178H88.665L85.252 57.7698H63.0672L65.1818 52.7778C61.7687 55.6717 55.7959 58.9997 36.208 58.9997C17.0652 59.0359 0.408082 55.2738 0 39.8999H25.1527C25.1527 43.6258 27.7125 47.3879 35.7999 47.3879C45.5938 47.3879 46.4471 44.0599 46.4471 41.998C46.4471 38.2721 43.8873 35.7761 31.9417 35.7761C14.4683 35.7761 2.1146 32.8821 2.1146 19.136C2.1146 3.32801 20.4783 0 35.3918 0C53.7184 0 70.7836 2.93009 70.7836 18.304ZM175.215 35.342L166.275 14.5419L157.742 35.342H175.215ZM103.17 14.5419L111.703 35.342H94.2298L103.17 14.5419ZM242.994 18.7019C242.994 16.2059 241.288 14.5419 239.173 14.5419H220.846V22.8619H239.173C241.288 22.8619 242.994 20.8 242.994 18.7019ZM244.255 38.67C244.255 41.166 242.549 42.83 240.434 42.83H220.772V34.9441H240.397H240.434C242.549 34.9441 244.255 36.6081 244.255 38.67Z" fill="#D8D6D6"/>
</svg>
